<svg fill="none" height="16" viewBox="0 0 16 16" width="16" xmlns="http://www.w3.org/2000/svg" xmlns:xlink="http://www.w3.org/1999/xlink"><clipPath id="a"><path d="m0 0h16v16h-16z"/></clipPath><g clip-path="url(#a)"><path clip-rule="evenodd" d="m14.4631.0128653c.0982-.0284835.2042-.00908389.286.0523726.0818.0614561.1299.1578101.1299.2601241 0 .096059-.0416.162512-.0571.185468-.0194.028697-.0394.048586-.0502.058791-.0223.020992-.0442.036203-.0562.044261-.0264.017783-.0569.034971-.0848.049964-.0582.031275-.1384.070481-.2342.115268-.193.09031-.4668.211565-.795.352526-.6573.28228-1.542.64746-2.455 1.00946-.9128.36185-1.85695.72175-2.63263.99289-.3875.13546-.7363.24994-1.01967.33159-.27.07779-.51727.13711-.68166.14064-.36607.00785-1.27106-.06841-2.24371-.16064.36729.09545.72439.18422 1.04721.25822.2851.06535.54045.11849.75087.15452.21647.03707.36575.05245.448.05069.07528-.00162.2574-.03289.55136-.10308.28217-.06738.63895-.16335 1.0452-.27912.81196-.23137 1.81033-.53862 2.78223-.84602.9714-.30724 1.9142-.61395 2.6143-.84389.35-.11496.6392-.2107.8409-.27768.1009-.03349.1798-.0598.2335-.07772.0269-.00896.0474-.01582.0613-.02044l.0207-.00695.0001-.00002c.0993-.03324.2084-.01671.2934.04443.0849.06114.1353.15941.1353.26408 0 .1004-.0456.1688-.0591.18839-.0189.02733-.0381.04638-.0483.05595-.0211.01993-.0419.03483-.0538.04304-.0261.01807-.0568.03629-.0862.05292-.061.03449-.1457.07864-.2479.12982-.2057.10308-.498.24264-.8487.40562-.7022.32629-1.6469.75018-2.6201 1.17092-.9728.42057-1.97718.83931-2.798 1.15467-.41004.15753-.77781.29064-1.07461.38547-.28065.08967-.54072.15987-.71129.16353-.26782.00575-.81171-.06947-1.43694-.17159-.31525-.05148-.66072-.11153-1.01768-.17549.41394.13379.8148.25839 1.17428.36233.31545.09121.59544.16548.8226.21607.23643.05265.38779.07302.46011.07147.07269-.00156.24714-.03289.53012-.10504.27101-.06909.61233-.16765 1.0004-.28672.77559-.23798 1.72571-.55414 2.64971-.8706.9234-.31628 1.8182-.63204 2.4824-.86879.332-.11836.6063-.21693.7975-.28589.0956-.03448.1704-.06156.2213-.08001.0255-.00922.0449-.01628.058-.02104l.0197-.00714v-.00003c.0998-.0363.211-.02166.2979.03923.087.06089.1388.16036.1388.26651 0 .09499-.0409.16076-.054.18083-.0177.02717-.0358.04638-.0457.05627-.0203.02045-.0404.03587-.0519.04439-.0252.0187-.0548.03751-.0828.05453-.0582.03535-.1389.08051-.2359.13277-.1953.10527-.4727.24784-.8056.41431-.6664.33331-1.5634.7665-2.489 1.19654-.9251.42983-1.88209.85804-2.66759 1.18063-.39235.16113-.74575.29749-1.03283.39474-.27083.09173-.52669.16471-.70022.16844-.14838.00318-.35615-.02212-.58646-.05986-.23691-.03882-.51993-.09472-.82906-.16106-.27665-.05937-.57664-.12763-.88659-.20046.37824.14575.74428.2813 1.07471.39526.30375.10476.57325.18982.79231.24771.22937.06061.37202.0826.43746.08119.06594-.00141.24295-.03715.54318-.12399.28532-.08253.64735-.20049 1.06061-.34313.82585-.28506 1.84308-.66411 2.83428-1.04362.9906-.37928 1.9526-.75806 2.6671-1.0421.3573-.14199.6525-.26026.8584-.34301.1029-.04137.1836-.07386.2384-.096.0274-.01107.0484-.01955.0625-.02525l.0209-.00848.0003-.0001.0001-.00003c.1003-.04065.2142-.02876.304.03171.0897.06047.1435.1616.1435.26983 0 .09972-.0453.16783-.0564.18446-.0173.02589-.0349.04428-.0442.05355-.0193.01941-.0386.03447-.0501.04314-.0251.01898-.0553.03883-.085.05759-.0614.03875-.1472.08917-.2514.14828-.2096.11896-.5076.28116-.8656.47128-.7166.38057-1.6806.87683-2.6732 1.36998-.9922.4929-2.0162.98429-2.85192 1.35432-.41743.18483-.79182.34113-1.09363.45247-.15074.0556-.2873.10145-.40436.13414-.11081.03095-.22668.05673-.32717.05889-.15741.00338-.37925-.03291-.61986-.08389-.24992-.05296-.55072-.12874-.88038-.21848-.26584-.07236-.55277-.15444-.85013-.24204.37687.16393.74001.31632 1.06871.44592.32405.12778.61008.2316.84043.30238.24367.07488.38646.10012.4436.0989.06325-.00136.23558-.03749.53096-.12765.27996-.08544.63467-.2077 1.03943-.3557.80883-.29575 1.80362-.68918 2.77242-1.08319.9682-.39376 1.9079-.78704 2.6057-1.08195.3488-.14744.6371-.27024.8381-.35615.1005-.04296.1792-.0767.2327-.09968.0268-.01149.0472-.02029.061-.02621l.0205-.00881.0002-.0001.0001-.00003c.1005-.04335.2161-.03321.3076.02696.0915.06018.1465.16233.1465.27182 0 .09691-.0428.16366-.0535.18017-.0166.02561-.0334.04397-.0424.05333-.0188.01954-.0375.03483-.0487.0437-.0246.01937-.054.0397-.083.05895-.06.03974-.1439.09151-.2456.15226-.2047.12224-.4958.28907-.8454.48469-.7.39159-1.6417.90251-2.6122 1.41033-.97.50755-1.97193 1.01371-2.79125 1.39501-.40921.1904-.77697.3515-1.07438.4664-.14853.0574-.2836.1048-.39994.1386-.11001.032-.22635.059-.32855.0612-.16183.0034-.38008-.037-.61042-.0924-.2398-.0577-.52519-.1401-.83562-.2372-.2191-.0686-.45267-.1452-.69416-.2268.32932.1611.64688.3108.93686.4393.30377.1345.57227.2434.78963.3175.23075.0786.36389.1035.41608.1024.01906-.0004.07397-.0077.17752-.0339.09757-.0247.22071-.0616.36762-.1103.29351-.0971.66765-.2363 1.09588-.4047.85568-.3366 1.91293-.7846 2.94413-1.23328 1.0307-.4484 2.0328-.89631 2.7774-1.23221.3723-.16792.6801-.3078.8947-.40567.1074-.04893.1914-.08736.2486-.11355.0286-.01309.0505-.02312.0652-.02986l.0218-.01004.0003-.00011.0001-.00004c.1007-.0463.2181-.03811.3114.02171s.1498.16306.1498.27392c0 .09984-.0457.16835-.0556.18319l-.0003.00057c-.0165.02465-.0329.04237-.0416.05126-.0181.01874-.0364.03375-.0477.04275-.0247.01963-.0549.04085-.0855.06158-.0631.04268-.1519.09898-.2604.16567-.218.13406-.5284.31789-.9013.53399-.7465.43252-1.7505.99802-2.7833 1.56052-1.0322.5622-2.09636 1.123-2.96223 1.5453-.43246.2109-.81959.3892-1.13049.5162-.15524.0634-.29575.1158-.41592.1531-.1126.035-.23378.0655-.33982.0678-.17184.0037-.40681-.0512-.64939-.1221-.25566-.0748-.56316-.1811-.89955-.3064-.20289-.0756-.41792-.1587-.64051-.247.3207.1718.62883.3315.91156.4707.33.1624.62018.2942.85268.384.11631.0449.2136.0776.29129.0983.08226.022.12408.0255.13629.0253.01904-.0004.072-.0074.17063-.0327.09316-.0239.21022-.0597.34963-.107.27854-.0946.63172-.2301 1.03511-.3945.80602-.3283 1.79732-.7655 2.76282-1.2034.9649-.4377 1.9013-.8748 2.5966-1.2027.3477-.1639.6349-.3005.8352-.396.1001-.0477.1785-.0852.2318-.11079.0135-.00647.0254-.01217.0357-.01707.0099-.00479.0183-.00882.0251-.01207l.0206-.0099.0001-.00003c.1008-.0485.2195-.0418.3142.01774.0947.05952.1522.16362.1522.27542 0 .0947-.0411.1605-.0507.1758l-.0001.0002c-.0155.0248-.0313.0428-.0397.052-.0177.0193-.0354.0347-.0463.0439-.0238.02-.0526.0413-.0814.0619-.0594.0424-.1426.098-.244.1636-.2038.1319-.4937.3125-.8421.5247-.6975.4247-1.636.9798-2.6034 1.5318-.9667.5517-1.96567 1.1022-2.78285 1.5169-.40811.2071-.77525.3825-1.0725.5076-.14843.0624-.28385.1142-.40086.1512-.11006.0348-.22921.065-.33549.0673-.17506.0038-.40609-.0541-.63966-.1276-.2465-.0776-.54016-.1877-.85937-.3172-.16215-.0658-.33213-.1371-.50741-.2124.27917.1616.54777.312.79627.4441.31205.166.58683.3002.80798.3915.23826.0983.36509.1252.40456.1244.05606-.0012.21829-.0384.50461-.138.26944-.0938.60991-.2285.99791-.3922.77519-.3271 1.72471-.7636 2.64511-1.2037.92-.4399 1.8074-.8817 2.4576-1.2185.3257-.1687.5891-.3097.7666-.4104.0858-.0486.1462-.0848.1828-.1088.0019-.0021.0037-.0042.0056-.0063.121-.1328.3268-.1425.4597-.0215.0809.0737.1132.1752.1064.2674-.0055.0746-.0349.1275-.0483.1494-.0276.0453-.0608.075-.0713.0844-.0286.0256-.0616.0485-.0871.0654-.0556.0369-.1339.0834-.2269.1361-.1881.1067-.46.2521-.7881.422-.6573.3406-1.5511.7855-2.4763 1.2278-.9248.4422-1.88446.8836-2.67282 1.2162-.39378.1662-.74869.3069-1.03699.4072-.27142.0945-.52933.1703-.70456.1741-.19183.0041-.43487-.0778-.66679-.1735-.24903-.1028-.54476-.248-.86526-.4184-.64196-.3415-1.40571-.7963-2.1356-1.2486-.73089-.453-1.4322-.9062-1.9505-1.2461-.25925-.1699-.472914-.3116-.621857-.4109-.074475-.0497-.13278-.0887-.172522-.1154-.019871-.0133-.035102-.0236-.045394-.0305l-.015473-.0104-.000205-.0002h-.000083c-.089606-.0605-.14331-.1616-.14331-.2697 0-.0915.038706-.1854.117056-.2513.064735-.0543.132048-.0688.162444-.0735.058886-.0091.107491 0 .120598.0025l.000555.0001c.036857.0069.072154.0189.094401.0269.050898.0182.11762.0461.1926.079.15266.0671.36883.1681.62632.29.17163.0814.36234.1724.567.27.41366.1974.88427.4219 1.36931.6485.72454.3385 1.47299.6776 2.09596.9303.31182.1265.58738.2294.81017.2995.23572.0742.37405.0989.43029.0977-.00021 0 .00046 0 .00208-.0001.00178-.0002.0047-.0005.00889-.001.00785-.0011.01855-.0029.03244-.0059.0281-.0061.06447-.0158.10979-.0301.09092-.0288.20626-.0724.34477-.1306.27664-.1164.62815-.284 1.03038-.4881.3476-.1764.72982-.3784 1.1296-.5953-.30619.1314-.59999.2549-.87339.3663-.40848.1664-.77522.3074-1.07146.408-.14799.0502-.28204.0916-.39704.1211-.10955.0281-.22182.0509-.31843.0529-.10344.0023-.21484-.0195-.31823-.0471-.10796-.0289-.22874-.0702-.35778-.12-.25821-.0997-.56783-.2409-.90557-.4072-.67639-.3329-1.48652-.7767-2.26314-1.2185-.77755-.4423-1.52558-.885-2.07895-1.2169-.276773-.166-.505044-.3044-.664203-.4014-.079583-.0485-.141897-.0866-.184367-.1126-.021236-.013-.037511-.023-.048504-.0298l-.016726-.0103-.000085-.0001c-.0960965-.0592-.154615-.164-.154615-.2769 0-.0997.0452361-.194.123236-.25631.063211-.05053.127482-.06395.155179-.06835.055498-.00882.101628-.0014.114621.00069l.000385.00006c.036267.00583.071752.01654.095418.0241.053321.01704.123848.04361.203997.07541.162882.0646.393674.1621.668834.2803.20648.0886.43844.1891.68817.2973.421.1824.89253.3866 1.37768.593.77166.3283 1.5676.6575 2.22657.903.32981.1229.62084.2232.85499.2916.24713.0723.39322.0974.45273.0961-.00012 0 .00341-.0001.01131-.0012.00822-.0011.01946-.003.03406-.0062.02952-.0063.06773-.0164.11535-.0312.09546-.0297.21697-.0745.36303-.1341.29169-.1191.66421-.2904 1.09128-.4987.37934-.185.79846-.3975 1.2374-.6258-.34806.1441-.68134.2793-.98945.4005-.43285.1703-.81963.3144-1.1296.417-.15484.0512-.29407.0933-.41235.1233-.11232.0285-.22674.0516-.32333.0536-.17911.0039-.41026-.0587-.63994-.137-.24307-.0828-.53114-.2003-.8432-.3385-.6249-.2767-1.36616-.6457-2.0738-1.0129-.70856-.3677-1.38757-.7358-1.88916-1.01176-.25089-.13803-.45759-.25314-.601658-.33378-.07204-.04033-.128431-.07205-.166868-.09372-.019219-.01083-.03395-.01915-.043906-.02478l-.014973-.00848-.000199-.00011-.000081-.00005c-.101883-.05778-.164841-.16587-.164841-.283 0-.08687.03437-.17045.096176-.23228.053357-.05339.111191-.0749.141906-.08385.05829-.01699.108149-.01387.122479-.01297.039133.00245.076278.01073.09858.01605.051345.01226.117545.03233.190385.05597.14874.04827.35866.1225.60799.21272.23061.08345.48525.177.76023.27801.34284.12594.71729.2635 1.11618.40758.70253.25376 1.42942.50885 2.03671.69885.30387.0952.57376.1727.79349.2256.2292.0552.37474.076.44421.0745.01345-.0003.06241-.0068.16071-.0354.09197-.0268.2082-.0671.34731-.1208.27788-.1073.63077-.2617 1.03429-.44942.37567-.1748.79167-.37693 1.22658-.59411-.34876.13496-.68304.26143-.99136.37417-.40951.14974-.77672.27656-1.07294.36696-.2808.0857-.53891.1522-.70696.1558-.17416.0037-.40885-.0537-.64869-.1274-.25316-.0778-.55665-.18842-.888-.31907-.66341-.26158-1.45665-.6108-2.21678-.95872-.76096-.3483-1.49244-.69702-2.03344-.95852-.270572-.13079-.49368-.23986-.649222-.31627-.077775-.0382-.138668-.06825-.180166-.08877-.02075-.01025-.036652-.01813-.047392-.02346l-.01634-.00811-.000084-.00004c-.110575-.05499-.1804891-.16784-.1804891-.29133 0-.09508.0406591-.17951.1020051-.23792.052176-.04969.107234-.06967.134871-.07787.053923-.016.100328-.01467.114541-.01423.037967.00117.074928.00769.098774.01231.053854.01043.124175.02821.202822.04971.160168.04379.38648.11178.65571.1949.27379.08452.60002.18721.95367.29854.33838.10651.70187.22093 1.06855.3349.75558.23485 1.53604.47139 2.184.64777.32419.08825.61165.16046.84434.20976.242.05127.39714.0715.47103.06991.01515-.00033.06599-.00709.16609-.03505.09385-.02621.21243-.06562.3542-.11792.28321-.10447.64338-.25454 1.05538-.43696.39622-.17544.83674-.37918 1.29734-.59809-.37839.13835-.74076.26789-1.07324.38265-.4177.14417-.7915.26616-1.0921.35311-.28569.08264-.54469.14592-.71004.14947-.16586.00356-.38718-.04173-.61768-.10264-.24081-.06364-.52708-.15436-.8382-.26167-.62284-.2148-1.36203-.50186-2.06822-.7879-.70698-.28636-1.38448-.57315-1.88499-.78824-.25033-.10758-.45657-.1973-.600314-.26016-.071874-.03144-.128131-.05616-.166472-.07305-.01917-.00844-.033862-.01492-.043788-.01931l-.014918-.0066-.000197-.00009-.000079-.00003c-.117663-.05215-.193528-.16875-.193528-.29746 0-.19718.152981-.28328.203795-.30449.053207-.0222.100394-.02549.116136-.02647.039626-.00247.0776.00125.100535.00387.052351.00599.11936.01803.19238.03273.14925.03003.35936.07858.6085.13854.30659.0738.68074.16697 1.08595.26787.25377.0632.51973.12942.7889.19582.70178.17313 1.42873.34827 2.03688.47878.3042.06529.57567.11875.79774.15513.22866.03747.38436.05323.46728.05145.05777-.00124.2206-.03772.50541-.13419.26855-.09097.60772-.22155.9944-.38036.3922-.16107.82935-.34954 1.28523-.55207-.3807.12453-.74591.24109-1.07997.34359-.39249.12043-.74502.22239-1.03053.29518-.27354.06974-.5183.12166-.67691.12506-.15898.00341-.37905-.03422-.61552-.08688-.24574-.05473-.54013-.13308-.8619-.22612-.64405-.18623-1.41221-.43554-2.14791-.68428-.73639-.24897-1.44338-.49843-1.96607-.68557-.26141-.09359-.476876-.17165-.627061-.22634-.075096-.02734-.13388-.04885-.173934-.06353-.020027-.00734-.035373-.01298-.045734-.01679l-.015755-.0058-.00008-.00003c-.127848-.04716-.212766-.16899-.212766-.30526 0-.19785.154793-.28256.194818-.30072.04926-.02236.093396-.02782.109052-.02961.038541-.00441.076171-.00302.100063-.00172.053765.00295.123126.01106.199482.02161.155803.02152.375245.05815.635715.10422.38706.06847.87531.15971 1.39954.25767.18264.03413.36965.06908.55827.10416.73193.13614 1.48962.27465 2.12141.37784.64614.10553 1.12331.1674 1.31809.16322.06073-.0013.23131-.03827.52721-.13281.27975-.08938.63442-.21751 1.03928-.37305.42193-.16211.89452-.35251 1.38763-.55702-.42261.12826-.82761.24829-1.19556.35314-.41018.11688-.77712.21572-1.07239.28623-.28348.06769-.53252.11738-.68854.12073-.14905.0032-.35089-.02205-.57179-.05987-.22695-.03887-.49523-.09489-.78644-.16164-.58274-.13359-1.26939-.31295-1.92391-.49206-.65512-.17928-1.28086-.35907-1.74263-.49399-.23095-.06748-.42103-.12377-.55345-.16322-.06621-.01973-.11802-.03524-.15331-.04584-.01765-.0053-.03117-.00937-.0403-.01212l-.0139-.00419-.00007-.00002c-.137291-.04151-.231205-.16802-.231205-.31144 0-.11908.06173-.20129.108389-.24335.042202-.03803.084146-.0559.102926-.06317.0393-.01521.07372-.01987.08564-.02143.03029-.00394.06057-.00448.08118-.00452.04569-.0001.10552.00256.17266.00666.13661.00834.32955.02433.55952.04519.37364.03389.85446.0815 1.36925.13247.12011.01189.24208.02397.36497.0361 1.31604.12989 2.7049.26189 3.14218.25251.06691-.00143.23524-.03462.51546-.11535.26684-.07689.60287-.18697.98511-.32058.4161-.14545.88301-.3174 1.36878-.50205-.42319.11087-.82965.21467-1.1979.30473-.38749.09478-.73515.17495-1.01663.23227-.27233.05545-.50799.09499-.65719.09819-.26539.0057-.79465-.06165-1.40128-.15383-.61962-.09415-1.3557-.22019-2.05637-.34301-.26396-.04627-.52255-.09203-.76824-.1355-.40847-.07227-.7813-.13823-1.08386-.18978-.24261-.04134-.43525-.07257-.562442-.09014-.037938-.00524-.06695-.00882-.088085-.0111-.095059.01591-.196211-.01039-.273001-.08031-.016753-.01526-.059163-.0563-.085807-.12457-.033569-.08601-.034061-.19903.031086-.29846.051478-.07858.120593-.11141.146933-.12261.031935-.01357.059405-.01931.07383-.02189.047206-.00845.092571-.00587.108142-.00499.000403.00003.000786.00005.001149.00007.04616.0026.107809.01001.174795.01926.13833.01911.33989.0519.58269.09326.30432.05185.68095.11849 1.09129.19109.24533.0434.5027.08894.76387.13472.70014.12273 1.43.24767 2.04178.34063.62477.09493 1.09235.15083 1.28956.1466.0821-.00177.26255-.02851.54133-.08527.26962-.0549.60807-.13285.99186-.22671.76713-.18763 1.70556-.43641 2.61726-.68518.9113-.248645 1.794-.496738 2.449-.68271.3274-.092975.5979-.170395.7864-.22456.0943-.027082.1681-.0483488.2183-.0628375.0251-.0072443.0443-.012794.0572-.0165287l.0194-.0056188z" fill="#000" fill-rule="evenodd"/></g></svg>