<svg viewBox="0 0 24 24" xmlns="http://www.w3.org/2000/svg"><circle cx="14.75" cy="13.125" r="3.75"/><path d="m21.444 6.125h-1.316a.534.534 0 0 1 -.481-.346c-.618-1.304-1.257-2.654-2.647-2.654h-5c-1.071 0-1.636.778-2.659 2.191-.384.527-.51.809-.844.809h-6c-2.063 0-2.497 1.209-2.497 2.223v10.388a2.254 2.254 0 0 0 2.556 2.389h18.888a2.254 2.254 0 0 0 2.556-2.389v-10.388c0-1.014-.443-2.223-2.556-2.223zm-.944 7a5.75 5.75 0 1 1 -5.75-5.75 5.756 5.756 0 0 1 5.75 5.75zm-15.5-3.25a1.25 1.25 0 1 1 -1.25-1.25 1.25 1.25 0 0 1 1.25 1.25z"/><path d="m2.5 5.109 3 .016a.5.5 0 0 0 .5-.5v-.25a1.5 1.5 0 0 0 -1.5-1.5h-1a1.5 1.5 0 0 0 -1.5 1.5v.234a.5.5 0 0 0 .5.5z"/></svg>