<svg xmlns="http://www.w3.org/2000/svg" viewBox="0 0 24 24"><path d="M19.4 14.5c-.1-.1-.3-.1-.4-.1h-.8v1.3h.6c.3 0 .6-.1.7-.2s.2-.3.2-.5c0-.1 0-.3-.1-.4 0 .1 0 0-.2-.1M8.8 12.6h-.6v1.6h.6c.2 0 .3 0 .4-.1l.3-.3c.1-.1.1-.3.1-.4 0-.3-.1-.5-.2-.6s-.4-.2-.6-.2M19.3 13.6c.1 0 .2-.1.3-.2s.1-.2.1-.3c0-.2-.1-.3-.2-.4s-.3-.2-.5-.2h-.7v1.2h.6c.1 0 .2-.1.4-.1"/><path d="M23.7 5.7 18.3.3c-.2-.2-.4-.3-.7-.3H6C4.9 0 4 .9 4 2v5.8c0 .1.1.2.2.2h1.5c.2 0 .3-.1.3-.2V2.5c0-.3.2-.5.5-.5h10.2c.2 0 .3.1.3.2V5c0 1.1.9 2 2 2h2.8c.1 0 .2.1.2.2v1.5c0 .2-.1.3-.2.3H1.2C.6 9 .1 9.4 0 10v9c.1.6.6 1 1.2 1h20.5c.1 0 .2.1.2.2v1.2c0 .3-.2.5-.5.5H6.2c-.1.1-.2 0-.2-.1v-.5c0-.2-.1-.3-.2-.3H4.2c-.1 0-.2.1-.2.2v.8c0 1.1.9 2 2 2h16c1.1 0 2-.9 2-2V6.4c0-.3-.1-.5-.3-.7M5.8 12.6H3.7v1.1h2v.9h-2v1.1h2.1v.9H2.5v-5h3.3zm4.8 1.6q-.15.45-.6.6c-.3.2-.6.2-1 .2h-.8v1.5H7v-5h2.1c.4 0 .7.1 1 .2s.4.4.6.6c.1.3.2.5.2.9-.1.5-.2.8-.3 1m5.2.7c0 .4-.1.7-.3 1s-.4.5-.7.6-.7.2-1.1.2-.8-.1-1.1-.2-.5-.4-.7-.6c-.2-.3-.3-.6-.3-1v-3.2h1.2v3.1c0 .3.1.6.2.7s.4.2.6.2c.3 0 .5-.1.6-.2.2-.2.2-.4.2-.7v-3.1h1.2v3.2zm5 1.1c-.2.2-.4.4-.6.5s-.6.2-.9.2h-2.2v-5h2.2c.5 0 .8.1 1.1.3s.4.5.4.9c0 .2 0 .4-.1.5-.1.2-.2.3-.3.4s-.3.2-.4.2c.2 0 .4.1.5.2.2.1.3.2.4.4s.2.4.2.6c-.1.3-.2.6-.3.8"/></svg>