<svg xmlns="http://www.w3.org/2000/svg" viewBox="0 0 24 24"><path d="M23.7 5.7 18.3.3c-.2-.2-.4-.3-.7-.3H6C4.9 0 4 .9 4 2v5.8c0 .1.1.2.2.2h1.5c.2 0 .3-.1.3-.2V2.5c0-.3.2-.5.5-.5h10.2c.2 0 .3.1.3.2V5c0 1.1.9 2 2 2h2.8c.1 0 .2.1.2.2v1.5c0 .2-.1.3-.2.3H1.2C.6 9 .1 9.4 0 10v9c.1.6.6 1 1.2 1h20.5c.1 0 .2.1.2.2v1.2c0 .3-.2.5-.5.5H6.2c-.1.1-.2 0-.2-.1v-.5c0-.2-.1-.3-.2-.3H4.2c-.1 0-.2.1-.2.2v.8c0 1.1.9 2 2 2h16c1.1 0 2-.9 2-2V6.4c0-.3-.1-.5-.3-.7M6.4 16.6H5.2v-2H3.3v2H2.1v-5h1.2v2h1.8v-2h1.2v5zm4.7-4H9.8v4H8.6v-4H7.2v-1h3.9zm5.9 4h-1.1v-3.1h-.1l-1 2.3h-.7L13 13.5v3.1h-1v-5h1.2l1.3 2.8 1.3-2.8H17zm4.5 0h-3.2v-5h1.2v4h2z"/></svg>