<svg viewBox="0 0 24 24" xmlns="http://www.w3.org/2000/svg"><path d="m17.508 18.5a1 1 0 0 0 -1 1v.5a.5.5 0 0 1 -.5.5h-5.5a.5.5 0 0 1 -.5-.5v-16a.5.5 0 0 1 .5-.5h5.5a.5.5 0 0 1 .5.5v1a1 1 0 0 0 2 0v-2.5a1 1 0 0 0 -1-1h-7.5v-1a.5.5 0 0 0 -.608-.488l-9 2a.5.5 0 0 0 -.392.488v19a.5.5 0 0 0 .392.489l9 2a.506.506 0 0 0 .421-.1.5.5 0 0 0 .187-.39v-1h7.5a1 1 0 0 0 1-1v-2a1 1 0 0 0 -1-.999zm-10-6a1.5 1.5 0 1 1 -1.5-1.5 1.5 1.5 0 0 1 1.5 1.5z"/><path d="m23.546 11.668-4.875-3.25a1 1 0 0 0 -1.554.832v1.75h-4.125a1.5 1.5 0 0 0 0 3h4.125v1.75a1 1 0 0 0 1.554.832l4.875-3.25a1 1 0 0 0 0-1.664z"/></svg>