<svg viewBox="0 0 20 24" xmlns="http://www.w3.org/2000/svg"><path d="m17.8 7h-2.8c-1.1 0-2-.9-2-2v-2.8s-.1-.2-.3-.2h-10.2c-.3 0-.5.2-.5.5v19.3c0 .1 0 .2.2.1h15.3c.3 0 .5-.2.5-.5v-14.2s-.1-.2-.2-.2z" opacity=".3"/><path d="m19.7 5.7-4.3-4.3-1.1-1.1c-.2-.3-.4-.3-.7-.3h-11.6c-1.1 0-2 .9-2 2v20c0 1.1.9 2 2 2h16c1 0 1.8-.7 2-1.6v-16c0-.3-.1-.5-.3-.7zm-1.9 1.3c.1 0 .2 0 .2.2v14.2c0 .3-.2.5-.5.5h-15.3c0 .1-.2 0-.2-.1v-19.3c0-.3.2-.5.5-.5h10.2c.2 0 .3 0 .3.2v2.8c0 1.1.9 2 2 2z"/><path d="m5.6 13 .4-.4c.3-.3.8-.3 1.1 0 1 .9 2.5.9 3.4 0 .3-.3.8-.3 1.1 0 1 1 2.5 1 3.4 0l.3-.3c.3-.3.3-.8 0-1.1s-.8-.3-1.1 0l-.3.3c-.3.3-.8.3-1.1 0-1-1-2.5-1-3.4 0-.3.3-.8.3-1.1 0-1-1-2.5-1-3.4 0l-.4.4c-.3.3-.3.8 0 1.1s.8.3 1.1 0z"/></svg>
