<svg viewBox="0 0 20 24" xmlns="http://www.w3.org/2000/svg"><path d="m14.4 16.8s.2-.2.2-.3v-5.1c-2.8-.2-5.1-2.2-5.8-4.9h-4.2c-.8 0-1.4.6-1.4 1.4v11.1c0 .8.6 1.5 1.5 1.5h1.2s.2 0 .3-.2l4.4-6.8c.2-.3.3-.4.7-.4s.5.2.7.4l2.2 3.1c0 .2.3.2.4 0zm-7.3-1.9c-.9 0-1.7-.8-1.7-1.7s.8-1.7 1.7-1.7 1.7.8 1.7 1.7-.8 1.7-1.7 1.7z"/><path d="m11.2 15.8c0-.2-.2-.2-.3 0s-2.6 4.1-2.6 4.1v.4h.2 4.3c.3 0 .7-.2.8-.3s.2-.2 0-.3l-2.4-3.8z"/><path d="m15.8 21.7c0 .3-.2.4-.4.4h-13.5-.2v-16.9c0-.3.2-.4.4-.4h6.3c0-.6.1-1.2.3-1.8h-6.9c-1 0-1.8.8-1.8 1.8v17.5c0 1 .8 1.8 1.8 1.8h14c.9 0 1.6-.6 1.8-1.4v-11.6c-.5.2-1.1.4-1.8.5v10.3z"/><path d="m15 0c-2.8 0-5 2.2-5 5s2.2 5 5 5 5-2.2 5-5-2.2-5-5-5zm1.9 5.6h-1.2c-.1 0-.2 0-.2.2v1.2c0 .3-.3.6-.6.6s-.6-.3-.6-.6v-1.2c0-.1 0-.2-.2-.2h-1.2c-.3 0-.6-.3-.6-.6s.3-.6.6-.6h1.2c.1 0 .2 0 .2-.2v-1.2c0-.3.3-.6.6-.6s.6.3.6.6v1.2c0 .1 0 .2.2.2h1.2c.3 0 .6.3.6.6s-.3.6-.6.6z"/></svg>