<svg xmlns="http://www.w3.org/2000/svg" viewBox="0 0 20 24"><path d="m14.8 4.1 1.4 1.4c-.1-.7-.6-1.3-1.4-1.4M13.3 8.6c-1.1 0-2-.9-2-2V4.1H4.9c-.9 0-1.6.7-1.6 1.6v12.7c0 .9.7 1.7 1.7 1.7h1.4c.1 0 .2-.1.3-.2l5-7.8c.2-.3.4-.4.8-.4.3 0 .6.2.8.4l2.5 3.6c.1.2.3.2.4.1s.2-.2.2-.3V8.7h-3.1zm-5.4 5c-1 0-1.9-.9-1.9-1.9s.9-1.9 1.9-1.9 1.9.9 1.9 1.9-.9 1.9-1.9 1.9"/><path d="M12.7 14.8c-.1-.2-.3-.2-.4-.1l-.1.1-3.1 4.8c-.1.2-.1.4.1.5.1 0 .1.1.2.1h5.2c.4 0 .8-.2 1-.4.1-.1.2-.3 0-.4z"/><path d="m19.5 5.7-4.3-4.3L14.1.3c-.2-.2-.4-.3-.7-.3H1.8C.7 0-.2.9-.2 2v20c0 1.1.9 2 2 2h16c1 0 1.8-.7 2-1.6v-16c0-.3-.1-.5-.3-.7M17.6 7c.1 0 .2.1.2.2v14.2c0 .3-.2.5-.5.5H2c-.1.1-.2 0-.2-.1V2.5c0-.3.2-.5.5-.5h10.2c.2 0 .3.1.3.2V5c0 1.1.9 2 2 2z"/></svg>