<svg viewBox="0 0 20 24" xmlns="http://www.w3.org/2000/svg"><path d="m15 11.5c-3.6 0-6.5-2.9-6.5-6.5s0-.2 0-.2h-6.3c-.3 0-.4.2-.4.4v16.9s0 .2.2 0h13.4c.3 0 .4-.2.4-.4v-10.3c-.2 0-.5 0-.8 0z" opacity=".3"/><path d="m15.8 21.7c0 .3-.2.4-.4.4h-13.5-.2v-16.9c0-.3.2-.4.4-.4h6.3c0-.6.1-1.2.3-1.8h-6.9c-1 0-1.8.8-1.8 1.8v17.5c0 1 .8 1.8 1.8 1.8h14c.9 0 1.6-.6 1.8-1.4v-11.6c-.5.2-1.1.4-1.8.5v10.3z"/><path d="m15 0c-2.8 0-5 2.2-5 5s2.2 5 5 5 5-2.2 5-5-2.2-5-5-5zm1.9 5.6h-1.2c-.1 0-.2 0-.2.2v1.2c0 .3-.3.6-.6.6s-.6-.3-.6-.6v-1.2c0-.1 0-.2-.2-.2h-1.2c-.3 0-.6-.3-.6-.6s.3-.6.6-.6h1.2c.1 0 .2 0 .2-.2v-1.2c0-.3.3-.6.6-.6s.6.3.6.6v1.2c0 .1 0 .2.2.2h1.2c.3 0 .6.3.6.6s-.3.6-.6.6z"/><path d="m4.4 14.5.4-.4c.3-.3.8-.3 1.1 0 1 .9 2.5.9 3.4 0 .3-.3.8-.3 1.1 0 1 1 2.5 1 3.4 0l.3-.3c.3-.3.3-.8 0-1.1s-.8-.3-1.1 0l-.3.3c-.3.3-.8.3-1.1 0-1-1-2.5-1-3.4 0-.3.3-.8.3-1.1 0-1-1-2.5-1-3.4 0l-.4.4c-.3.3-.3.8 0 1.1s.8.3 1.1 0z"/></svg>