<svg viewBox="0 0 24 24" xmlns="http://www.w3.org/2000/svg"><path d="m21.5 2.5h-19-.00000011c-1.38071.00000006-2.5 1.11929-2.5 2.5v14 .00000038c.00000021 1.38071 1.11929 2.5 2.5 2.5h19 .00000011c1.38071-.00000027 2.5-1.11929 2.5-2.5v-14c0-1.38071-1.11929-2.5-2.5-2.5zm-.5 12.25h-4-.00000003c-.414214-.00000002-.75-.335786-.75-.75.00000002-.414214.335786-.75.75-.75h4-.00000003c.414214-.00000002.75.335786.75.75.00000002.414214-.335786.75-.75.75zm-6.469-1.28c.292711.292294.293049.766535.00075431 1.05925-.00025126.00025162-.0005027.00050305-.00075431.00075431l-.00000003.00000002c-.29683.283557-.76417.283557-1.061-.00000005l-1.293-1.293-.00000001-.00000001c-.0975674-.0972627-.255433-.0972627-.353.00000002l-1.293 1.293.00000001-.00000001c-.294501.28931-.766499.28931-1.061.00000002l.00000002.00000002c-.292711-.292294-.293049-.766535-.00075434-1.05925.00025126-.00025162.0005027-.00050305.00075431-.00075431l1.293-1.293.00000001-.00000001c.0977544-.0975076.0979545-.255799.00044687-.353553-.00014878-.00014915-.00029774-.00029812-.00044689-.00044689l-1.293-1.293-.00000005-.00000006c-.28762-.298073-.279147-.772871.0189256-1.06049.290776-.280579.751564-.280362 1.04207.00049142l1.293 1.293c.0975674.0972627.255433.0972627.353-.00000001l1.293-1.293.00000005-.00000005c.297801-.287901.772607-.279876 1.06051.0179256.280853.290511.28107.751299.00049121 1.04207l-1.293 1.293-.00000003.00000003c-.0977544.0975076-.0979544.255799-.00044684.353553.00014878.00014915.00029774.00029812.00044689.00044689zm-7 0c.292711.292294.293049.766535.00075431 1.05925-.00025126.00025162-.0005027.00050305-.00075431.00075431l.00000003-.00000003c-.294812.287593-.765187.287593-1.06.00000005l-1.294-1.293c-.0981335-.0968348-.255866-.0968348-.354 0l-1.293 1.293.00000001-.00000001c-.296698.282921-.763302.282921-1.06.00000002l.00000002.00000002c-.292711-.292294-.293049-.766535-.00075434-1.05925.00025126-.00025162.0005027-.00050305.00075431-.00075431l1.293-1.293c.0968348-.0981335.0968348-.255866-.00000001-.354l-1.293-1.293-.00000002-.00000002c-.282379-.303043-.265627-.777621.0374166-1.06.28803-.268389.734554-.268389 1.02258.00000004l1.293 1.293c.0981335.0968348.255866.0968348.354.00000001l1.293-1.293.00000002-.00000002c.303043-.282379.777621-.265627 1.06.0374166.268389.28803.268389.734554-.00000003 1.02258l-1.293 1.293c-.0968348.0981335-.0968348.255866 0 .354z"/></svg>