<svg xmlns="http://www.w3.org/2000/svg" viewBox="0 0 24 24"><path d="M2.649 16.4a.5.5 0 0 0-.841.245L.394 23.01a.5.5 0 0 0 .134.462.51.51 0 0 0 .462.135l6.364-1.414a.5.5 0 0 0 .245-.842zM17.852 7.208l-10.96 10.96a.25.25 0 0 0 0 .354L8.66 20.29a.507.507 0 0 0 .707 0L19.974 9.683a.5.5 0 0 0 0-.707l-1.768-1.768a.25.25 0 0 0-.354 0M16.792 5.794l-1.768-1.767a.5.5 0 0 0-.707 0L3.71 14.633a.5.5 0 0 0 0 .707l1.768 1.768a.25.25 0 0 0 .354 0l10.96-10.96a.25.25 0 0 0 0-.354M22.449 1.552a4.005 4.005 0 0 0-5.658 0l-.707.707a.5.5 0 0 0 0 .707l4.95 4.949a.513.513 0 0 0 .707 0l.708-.707a4 4 0 0 0 0-5.656"/></svg>