<svg viewBox="0 0 24 24" xmlns="http://www.w3.org/2000/svg"><path d="m23.2 16.5c-.6-1.1-2.4-1.8-4.9-2.8l-.6-.2c-.2-.5-.2-1 0-1.5 1.1-1.2 1.7-2.9 1.5-4.5.2-2.2-1.5-4.2-3.7-4.4 0 0-.2 0-.3 0-.6 0-1.2.1-1.7.4-.2 0-.2.3-.1.4.7 1 1.1 2.3 1.1 3.5 0 1.6-.3 3.2-1.2 4.6v.4c2.4.9 4.2 1.7 4.9 3.2.6 1.4.9 2.9.9 4.4v.3.3s.1.1.2.1h3.8c.3 0 .6-.3.6-.6 0-1.3-.3-2.5-.8-3.7z"/><path d="m12 13.8-.6-.2c-.2-.5-.2-1 0-1.5 1.1-1.2 1.7-2.9 1.5-4.5.2-2.2-1.5-4.2-3.7-4.4 0 0-.2 0-.3 0-2.2 0-4 1.9-4 4.1v.3c-.2 1.6.4 3.3 1.5 4.5.2.5.2 1 0 1.5l-.7.2c-2.5.9-4.4 1.6-4.9 2.8s-.8 2.4-.8 3.7c0 .3.3.6.6.6h16.4c.3 0 .6-.3.6-.6 0-1.3-.3-2.5-.8-3.7-.6-1.1-2.4-1.8-4.9-2.7z"/></svg>