<svg xmlns="http://www.w3.org/2000/svg" viewBox="0 0 24 24"><path d="m23.6 11.3-3.9-2.9c-.4-.3-1-.2-1.2.2-.1.2-.2.3-.2.5v1.3q0 .3-.3.3h-4.4q-.3 0-.3-.3V6q0-.3.3-.3h1.3c.5 0 .9-.4.9-.9 0-.2 0-.4-.2-.6L12.7.3c-.3-.4-.9-.5-1.3-.1l-.1.1-2.9 3.9c-.3.4-.2 1 .2 1.2.2.1.3.2.5.2h1.3q.3 0 .3.3v4.4q0 .3-.3.3H6q-.3 0-.3-.3V9c0-.5-.4-.9-.9-.9-.2 0-.4 0-.5.2l-3.9 3c-.4.3-.5.9-.2 1.2l.2.2 3.9 2.9c.4.3 1 .2 1.2-.2.1-.2.2-.3.2-.5v-1.3q0-.3.3-.3h4.4q.3 0 .3.3V18q0 .3-.3.3H9.1c-.5 0-.9.4-.9.9 0 .2 0 .4.2.5l2.9 3.9c.3.4.9.5 1.2.2l.2-.2 2.9-3.9c.3-.4.2-1-.2-1.2-.2-.1-.3-.2-.5-.2h-1.3q-.3 0-.3-.3v-4.4q0-.3.3-.3H18q.3 0 .3.3v1.3c0 .5.4.9.9.9.2 0 .4 0 .5-.2l3.9-2.9c.4-.3.5-.9.2-1.3l-.2-.2z"/></svg>