<svg viewBox="0 0 24 24" xmlns="http://www.w3.org/2000/svg"><path d="m6.177 6.167a8.233 8.233 0 0 1 8.351-2.027 1.249 1.249 0 1 0 .76-2.38 10.751 10.751 0 0 0 -13.242 14.273.248.248 0 0 1 -.094.3l-1.4.922a1 1 0 0 0 .348 1.816l4.407.908a.99.99 0 0 0 .2.021 1 1 0 0 0 .979-.8l.914-4.406a1 1 0 0 0 -1.529-1.037l-1.339.881a.25.25 0 0 1 -.376-.133 8.269 8.269 0 0 1 2.021-8.338z"/><path d="m23.883 5.832a1 1 0 0 0 -.763-.807l-4.388-1a1 1 0 0 0 -1.2.752l-1 4.387a1 1 0 0 0 1.507 1.069l1.443-.906a.247.247 0 0 1 .218-.027.252.252 0 0 1 .153.159 8.249 8.249 0 0 1 -10.285 10.424 1.25 1.25 0 1 0 -.737 2.388 10.75 10.75 0 0 0 13.154-14.271.248.248 0 0 1 .1-.3l1.346-.846a1 1 0 0 0 .452-1.022z"/></svg>