<svg viewBox="0 0 24 24" xmlns="http://www.w3.org/2000/svg"><path d="m22.421 9.763-1.266-.449.00000012.00000004c-.715005-.254175-1.08858-1.03985-.834406-1.75486.015863-.0446231.0340224-.0883962.0544056-.131144l.576-1.213.00000009-.0000002c.562362-1.18562.0571125-2.60264-1.12851-3.165-.644423-.305662-1.39207-.305662-2.03649.0000002l-1.213.577.00000003-.00000002c-.686103.325481-1.50615.0331379-1.83163-.652965-.0199623-.0420799-.0377737-.0851469-.0533652-.129034l-.45-1.265.00000005.00000014c-.440698-1.23601-1.79994-1.88074-3.03595-1.44005-.671828.239539-1.20051.768217-1.44005 1.44005l-.45 1.266v-.00000001c-.254689.715408-1.04111 1.08889-1.75652.834205-.0436977-.0155566-.0865803-.0333144-.128483-.0532053l-1.213-.577-.00000004-.00000002c-1.18562-.562362-2.60264-.0571125-3.165 1.12851-.305662.644423-.305662 1.39207.00000004 2.03649l.576 1.213.00000005.0000001c.326289.685719.0349133 1.50611-.650806 1.8324-.0421276.0200458-.0852481.0379345-.129194.0535967l-1.266.45-.00000004.00000001c-1.23574.439828-1.88095 1.79814-1.44112 3.03388.239375.672547.768575 1.20175 1.44112 1.44112l1.266.45-.00000004-.00000002c.714925.2544 1.08825 1.04019.833853 1.75512-.0157227.0441846-.0336974.0875352-.0538533.129882l-.576 1.213.00000006-.00000012c-.562362 1.18562-.0571127 2.60264 1.12851 3.165.644423.305662 1.39207.305662 2.03649.00000011l1.213-.576-.00000004.00000002c.6845-.32628 1.5039-.0358847 1.83018.648616.0205653.0431439.0388639.0873322.0548208.132384l.45 1.265-.00000012-.00000034c.440698 1.23601 1.79994 1.88074 3.03595 1.44005.671828-.239539 1.20051-.768217 1.44005-1.44004l.45-1.266.00000007-.00000021c.2544-.714925 1.04019-1.08825 1.75512-.833853.0441846.0157227.0875352.0336974.129882.0538534l1.213.576-.00000014-.00000007c1.18562.562362 2.60264.0571127 3.165-1.12851.305662-.644423.305662-1.39207.00000014-2.03649l-.576-1.213-.00000001-.00000001c-.326132-.685182-.035064-1.50501.650118-1.83115.0423464-.020156.085697-.0381306.129882-.0538533l1.266-.451-.00000016.00000006c1.23574-.439828 1.88095-1.79814 1.44112-3.03388-.239375-.672547-.768575-1.20175-1.44112-1.44112zm-10.421 7.022h-.00000027c-1.92881-.0279814-3.66412-1.17834-4.441-2.944l-.00000007-.00000017c-1.01279-2.45242.150189-5.26191 2.6-6.281l-.00000002.00000001c2.45232-.980726 5.23932.172946 6.281 2.6l.00000007.00000018c1.01279 2.45242-.150189 5.26191-2.6 6.281l-.00000033.00000014c-.583184.239869-1.20955.356971-1.84.344z"/></svg>