<svg viewBox="0 0 64 50.6" xmlns="http://www.w3.org/2000/svg"><path d="m58.7 50.6h-53.4c-2.9 0-5.3-2.4-5.3-5.3v-40c0-2.9 2.4-5.3 5.3-5.3h53.3c2.9 0 5.3 2.4 5.3 5.3v40c0 2.9-2.3 5.3-5.2 5.3m0-7.3v-36.7c0-.7-.6-1.3-1.3-1.3h-50.7c-.7 0-1.3.6-1.3 1.3v36.7c0 .3.3.6.6.6s.4 0 .5-.3l5.9-8.4c.3-.4.8-.7 1.4-.7h1.8l7-10c.3-.4.8-.7 1.4-.7h1.9c.5 0 1.1.3 1.4.7l14.2 20.2c.2.3.5.4.8.4h.7c.6 0 1-.5 1-1s0-.4-.2-.6l-3.5-4.9c-.4-.6-.4-1.4 0-2l3.1-4.1c.3-.4.8-.7 1.3-.7h2.8c.5 0 1 .2 1.3.7l8.4 11.1c.2.3.7.4 1 0 .4 0 .5-.2.5-.4m-14.7-19.2c-3.7 0-6.7-3-6.7-6.7s3-6.7 6.7-6.7 6.7 3 6.7 6.7-3 6.7-6.7 6.7" fill-rule="evenodd"/></svg>