<svg viewBox="0 0 24 20.6" xmlns="http://www.w3.org/2000/svg"><path d="m2.1 4.1c1.1 0 2.1-.9 2.1-2.1s-1-2-2.1-2-2.1.9-2.1 2.1.9 2 2.1 2m4.1-2c0-.8.6-1.4 1.4-1.4h15.1c.7 0 1.3.6 1.3 1.4s-.6 1.4-1.4 1.4h-15.1c-.7 0-1.3-.7-1.3-1.4m1.3 6.8c-.8 0-1.4.6-1.4 1.4s.6 1.4 1.4 1.4h15.1c.8 0 1.4-.6 1.4-1.4s-.6-1.4-1.4-1.4zm0 8.3c-.8 0-1.4.6-1.4 1.4s.6 1.4 1.4 1.4h15.1c.8 0 1.4-.6 1.4-1.4s-.6-1.4-1.4-1.4zm-3.4-6.9c0 1.1-.9 2.1-2.1 2.1s-2-1-2-2.1.9-2.1 2.1-2.1 2 1 2 2.1m-2 10.3c1.1 0 2.1-.9 2.1-2.1s-.9-2.1-2.1-2.1-2.1 1-2.1 2.1.9 2.1 2.1 2.1" fill-rule="evenodd"/></svg>