<svg fill="none" height="356" viewBox="0 0 356 356" width="356" xmlns="http://www.w3.org/2000/svg"><path clip-rule="evenodd" d="m289.488 40.2219c1.695-.4913 3.522-.1567 4.933.9034s2.242 2.7223 2.242 4.4872c0 1.657-.718 2.8033-.986 3.1993-.334.495-.679.8381-.866 1.0141-.385.3621-.761.6245-.968.7635-.456.3068-.982.6033-1.463.8619-1.005.5395-2.389 1.2158-4.04 1.9884-3.329 1.5578-8.052 3.6495-13.714 6.0811-11.339 4.8694-26.599 11.1686-42.35 17.4131-15.744 6.242-32.031 12.4502-45.412 17.1274-6.684 2.3366-12.701 4.3114-17.589 5.7199-4.658 1.3418-8.923 2.3648-11.759 2.4258-6.314.136-21.926-1.18-38.704-2.7707 6.336 1.6467 12.496 3.1777 18.065 4.4547 4.918 1.127 9.322 2.044 12.952 2.665 3.734.639 6.309.905 7.728.874 1.299-.027 4.44-.567 9.511-1.778 4.868-1.162 11.022-2.818 18.03-4.814 14.006-3.9918 31.228-9.2918 47.993-14.5944 16.757-5.2999 33.02-10.5906 45.097-14.5571 6.037-1.983 11.027-3.6345 14.506-4.79 1.739-.5778 3.101-1.0315 4.028-1.3406.463-.1545.818-.273 1.056-.3526l.359-.1199.001-.0005c1.712-.5733 3.595-.2881 5.061.7666 1.465 1.0546 2.334 2.7498 2.334 4.5553 0 1.732-.787 2.9119-1.02 3.2498-.327.4714-.658.7999-.833.9651-.364.3438-.723.6008-.928.7424-.45.3117-.98.626-1.487.9128-1.052.5951-2.514 1.3566-4.276 2.2395-3.549 1.7782-8.591 4.1856-14.641 6.9969-12.113 5.6286-28.408 12.9407-45.196 20.1987-16.781 7.254-34.106 14.478-48.265 19.918-7.074 2.717-13.418 5.013-18.538 6.649-4.841 1.547-9.327 2.758-12.269 2.821-4.62.099-14.002-1.198-24.787-2.96-5.439-.888-11.398-1.924-17.556-3.027 7.141 2.308 14.056 4.457 20.257 6.25 5.441 1.574 10.271 2.855 14.19 3.727 4.078.908 6.689 1.26 7.937 1.233 1.253-.027 4.263-.567 9.144-1.812 4.675-1.192 10.563-2.892 17.257-4.946 13.379-4.105 29.769-9.559 45.708-15.018 15.928-5.455 31.364-10.902 42.821-14.986 5.727-2.042 10.458-3.7422 13.756-4.9318 1.65-.5948 2.94-1.0619 3.818-1.3801.439-.1591.775-.281 1.001-.363l.339-.1232.001-.0005c1.721-.6262 3.639-.3736 5.139.6767s2.393 2.7659 2.393 4.5969c0 1.639-.706 2.774-.931 3.12-.305.468-.618.8-.788.97-.35.353-.697.619-.896.766-.435.323-.945.647-1.429.941-1.003.61-2.395 1.389-4.068 2.29-3.369 1.816-8.154 4.275-13.896 7.147-11.497 5.75-26.97 13.222-42.936 20.64-15.958 7.415-32.466 14.801-46.016 20.366-6.768 2.78-12.864 5.132-17.816 6.809-4.672 1.583-9.086 2.842-12.079 2.906-2.559.055-6.143-.382-10.116-1.033-4.087-.669-8.969-1.633-14.302-2.778-4.772-1.024-9.947-2.202-15.293-3.458 6.524 2.514 12.838 4.853 18.538 6.818 5.24 1.807 9.889 3.275 13.668 4.273 3.956 1.046 6.417 1.425 7.546 1.401 1.137-.024 4.191-.641 9.37-2.139 4.922-1.424 11.167-3.458 18.295-5.919 14.246-4.917 31.794-11.456 48.892-18.002 17.087-6.543 33.682-13.077 46.008-17.977 6.162-2.449 11.255-4.489 14.807-5.916 1.775-.714 3.166-1.275 4.112-1.656.473-.191.834-.338 1.078-.436l.361-.146.005-.002.001-.001c1.73-.701 3.696-.496 5.244.547s2.476 2.788 2.476 4.655c0 1.72-.781 2.895-.973 3.182-.299.447-.602.764-.762.924-.334.335-.667.594-.865.744-.433.327-.953.67-1.465.993-1.06.669-2.54 1.538-4.337 2.558-3.616 2.052-8.758 4.85-14.933 8.13-12.361 6.565-28.989 15.125-46.113 23.632-17.114 8.502-34.778 16.979-49.195 23.362-7.2 3.188-13.658 5.884-18.865 7.805-2.6.959-4.956 1.75-6.975 2.314-1.911.534-3.91.978-5.644 1.016-2.715.058-6.542-.568-10.692-1.447-4.311-.914-9.5-2.221-15.187-3.769-4.585-1.248-9.535-2.664-14.664-4.175 6.501 2.827 12.765 5.456 18.435 7.692 5.59 2.204 10.524 3.995 14.497 5.216 4.204 1.291 6.667 1.727 7.652 1.706 1.091-.024 4.064-.647 9.159-2.202 4.83-1.474 10.948-3.583 17.931-6.136 13.952-5.102 31.112-11.888 47.824-18.685 16.701-6.792 32.911-13.576 44.948-18.664 6.017-2.543 10.99-4.661 14.457-6.143 1.734-.741 3.091-1.323 4.015-1.72.461-.198.814-.35 1.052-.452l.352-.152.005-.002h.001c1.734-.748 3.728-.573 5.306.465s2.528 2.8 2.528 4.689c0 1.672-.739 2.823-.923 3.108-.286.442-.577.758-.732.92-.323.337-.647.601-.84.754-.424.334-.931.685-1.432 1.016-1.035.686-2.481 1.579-4.236 2.627-3.532 2.109-8.553 4.986-14.584 8.361-12.074 6.755-28.319 15.568-45.06 24.328-16.732 8.755-34.015 17.487-48.149 24.063-7.058 3.285-13.402 6.065-18.533 8.046-2.562.99-4.892 1.808-6.899 2.391-1.897.553-3.904 1.018-5.667 1.055-2.792.06-6.557-.637-10.53-1.594-4.136-.995-9.059-2.415-14.414-4.091-3.78-1.183-7.809-2.505-11.975-3.912 5.681 2.78 11.159 5.362 16.161 7.577 5.24 2.321 9.872 4.199 13.621 5.477 3.981 1.357 6.277 1.786 7.178 1.767.328-.007 1.276-.132 3.062-.584 1.683-.427 3.807-1.064 6.341-1.902 5.063-1.676 11.517-4.077 18.904-6.983 14.761-5.806 32.998-13.534 50.787-21.273 17.779-7.735 35.065-15.462 47.91-21.256 6.422-2.897 11.731-5.309 15.434-6.998 1.851-.844 3.301-1.507 4.288-1.958.493-.226.87-.399 1.124-.516l.377-.173.004-.002h.002c1.737-.799 3.762-.658 5.372.374s2.584 2.813 2.584 4.725c0 1.723-.788 2.904-.958 3.16l-.007.01c-.283.425-.567.731-.716.884-.314.324-.629.582-.824.738-.426.338-.946.704-1.475 1.062-1.089.736-2.62 1.708-4.491 2.858-3.762 2.312-9.115 5.483-15.548 9.211-12.878 7.461-30.196 17.217-48.012 26.919-17.805 9.698-36.162 19.372-51.098 26.656-7.46 3.638-14.138 6.715-19.501 8.905-2.678 1.094-5.102 1.997-7.175 2.641-1.942.604-4.033 1.13-5.862 1.169-2.964.064-7.017-.882-11.202-2.106-4.41-1.289-9.714-3.123-15.517-5.285-3.5-1.304-7.209-2.738-11.049-4.261 5.532 2.963 10.847 5.719 15.725 8.12 5.692 2.802 10.698 5.074 14.708 6.624 2.007.775 3.685 1.338 5.025 1.696 1.419.379 2.14.44 2.351.435.328-.007 1.242-.126 2.943-.563 1.608-.412 3.627-1.03 6.032-1.846 4.804-1.631 10.897-3.969 17.855-6.804 13.904-5.665 31.003-13.205 47.659-20.76 16.645-7.549 32.797-15.091 44.792-20.747 5.996-2.827 10.951-5.182 14.406-6.83 1.728-.824 3.08-1.471 4-1.911.233-.112.438-.21.614-.295.172-.083.317-.152.434-.208l.355-.171h.002c1.739-.837 3.786-.721 5.42.306 1.633 1.027 2.625 2.821 2.625 4.751 0 1.634-.709 2.768-.875 3.033l-.002.003c-.267.427-.538.737-.684.897-.305.333-.611.599-.799.757-.41.345-.906.713-1.403 1.068-1.025.73-2.461 1.69-4.209 2.821-3.516 2.276-8.517 5.392-14.527 9.052-12.031 7.326-28.221 16.901-44.908 26.423-16.677 9.517-33.908 19.014-48.005 26.167-7.04 3.572-13.373 6.598-18.5 8.756-2.561 1.077-4.897 1.97-6.915 2.608-1.899.601-3.954 1.122-5.787 1.161-3.02.065-7.005-.932-11.035-2.201-4.252-1.339-9.317-3.238-14.824-5.472-2.797-1.134-5.729-2.364-8.753-3.663 4.816 2.787 9.45 5.381 13.736 7.661 5.383 2.863 10.123 5.178 13.938 6.753 4.11 1.696 6.298 2.16 6.978 2.145.968-.021 3.766-.661 8.705-2.38 4.648-1.618 10.521-3.941 17.214-6.766 13.372-5.642 29.751-13.172 45.628-20.764 15.87-7.588 31.178-15.209 42.394-21.019 5.617-2.91 10.161-5.342 13.224-7.078 1.479-.839 2.522-1.464 3.154-1.878.031-.036.063-.072.096-.108 2.087-2.292 5.637-2.458 7.929-.371 1.395 1.271 1.953 3.022 1.836 4.612-.096 1.287-.603 2.2-.833 2.577-.477.782-1.049 1.294-1.231 1.457-.493.441-1.062.836-1.501 1.127-.96.637-2.311 1.44-3.914 2.348-3.246 1.84-7.936 4.348-13.596 7.281-11.339 5.874-26.756 13.548-42.716 21.179-15.952 7.628-32.507 15.241-46.106 20.979-6.793 2.867-12.915 5.294-17.888 7.025-4.682 1.629-9.131 2.937-12.154 3.001-3.309.071-7.501-1.34-11.502-2.992-4.296-1.773-9.397-4.277-14.926-7.218-11.073-5.889-24.248-13.734-36.8387-21.538-12.6077-7.813-24.7055-15.632-33.6462-21.494-4.4719-2.932-8.1576-5.377-10.7269-7.089-1.2847-.857-2.2905-1.53-2.976-1.99-.3428-.23-.6055-.407-.783-.527l-.267-.179-.0035-.003-.0014-.001c-1.5457-1.043-2.4721-2.786-2.4721-4.651 0-1.579.6676-3.2 2.0192-4.335 1.1167-.938 2.2778-1.187 2.8022-1.268 1.0157-.157 1.8542 0 2.0803.043l.0095.001c.6358.119 1.2447.327 1.6285.464.8779.314 2.0289.795 3.3223 1.364 2.6333 1.157 6.3624 2.898 10.804 5.003 2.9606 1.402 6.2505 2.972 9.7808 4.656 7.1356 3.405 15.2536 7.279 23.621 11.188 12.498 5.838 25.409 11.687 36.155 16.047 5.379 2.182 10.132 3.956 13.975 5.166 4.066 1.28 6.453 1.707 7.423 1.686-.004 0 .008 0 .036-.003.03-.002.081-.007.153-.017.135-.019.32-.05.56-.102.484-.104 1.112-.272 1.894-.519 1.568-.496 3.557-1.248 5.947-2.253 4.772-2.008 10.835-4.898 17.774-8.419 5.996-3.043 12.589-6.527 19.485-10.269-5.281 2.267-10.349 4.397-15.066 6.318-7.046 2.871-13.372 5.303-18.482 7.038-2.553.867-4.865 1.581-6.849 2.09-1.89.485-3.826.877-5.493.913-1.784.038-3.706-.337-5.49-.814-1.862-.498-3.945-1.21-6.171-2.069-4.454-1.721-9.795-4.156-15.621-7.024-11.668-5.743-25.643-13.398-39.0396-21.019-13.4126-7.631-26.3162-15.267-35.8618-20.992-4.7743-2.864-8.712-5.252-11.4575-6.924-1.3728-.837-2.4477-1.494-3.1803-1.943-.3663-.225-.6471-.397-.8367-.514l-.2885-.178h-.0015c-1.6577-1.022-2.6671-2.831-2.6671-4.778 0-1.719.7803-3.346 2.1258-4.421 1.0904-.872 2.1991-1.103 2.6769-1.179.9573-.152 1.753-.024 1.9772.012l.0066.001c.6256.1 1.2377.285 1.646.416.9198.293 2.1364.752 3.5189 1.3 2.8097 1.115 6.7908 2.797 11.5374 4.835 3.5617 1.529 7.563 3.262 11.871 5.129 7.2622 3.146 15.3961 6.669 23.765 10.229 13.3112 5.663 27.0412 11.342 38.4082 15.578 5.689 2.119 10.709 3.848 14.749 5.029 4.263 1.247 6.783 1.68 7.809 1.658-.002 0 .059-.002.195-.021.142-.019.336-.052.588-.106.509-.109 1.168-.284 1.99-.539 1.646-.512 3.742-1.285 6.262-2.313 5.032-2.055 11.458-5.01 18.825-8.603 6.543-3.191 13.773-6.858 21.345-10.796-6.004 2.487-11.754 4.819-17.068 6.91-7.467 2.937-14.139 5.423-19.486 7.193-2.671.884-5.073 1.61-7.113 2.127-1.938.491-3.911.889-5.577.925-3.09.066-7.078-1.014-11.039-2.364-4.193-1.429-9.163-3.454-14.546-5.838-10.779-4.774-23.566-11.139-35.7726-17.474-12.2227-6.343-23.9357-12.692-32.5881-17.452-4.3277-2.381-7.8934-4.367-10.3786-5.758-1.2427-.696-2.2154-1.243-2.8785-1.617-.3315-.187-.5856-.33-.7573-.427l-.2583-.146-.0035-.002-.0014-.001c-1.7574-.997-2.8434-2.862-2.8434-4.882 0-1.499.5928-2.94 1.659-4.007.9204-.921 1.918-1.292 2.4479-1.446 1.0055-.293 1.8655-.24 2.1127-.224.6751.042 1.3158.185 1.7005.277.8857.211 2.0276.558 3.2842.965 2.5657.833 6.1869 2.113 10.4879 3.67 3.9779 1.439 8.3705 3.053 13.1138 4.795 5.914 2.173 12.3733 4.546 19.2537 7.031 12.119 4.378 24.658 8.777 35.134 12.056 5.241 1.641 9.897 2.979 13.687 3.891 3.954.952 6.465 1.311 7.663 1.285.232-.005 1.077-.117 2.772-.61 1.587-.462 3.592-1.158 5.991-2.085 4.794-1.851 10.881-4.513 17.842-7.752 6.48-3.015 13.656-6.502 21.158-10.248-6.016 2.328-11.782 4.509-17.101 6.454-7.064 2.583-13.398 4.77-18.508 6.33-4.844 1.478-9.296 2.626-12.195 2.688-3.004.064-7.053-.927-11.19-2.198-4.367-1.342-9.602-3.25-15.318-5.504-11.444-4.512-25.127-10.536-38.2392-16.538-13.1266-6.008-25.7447-12.023-35.0768-16.534-4.6674-2.256-8.516-4.138-11.1991-5.456-1.3416-.659-2.392-1.177-3.1079-1.531-.3579-.177-.6322-.313-.8175-.405l-.2819-.14h-.0014c-1.9074-.949-3.1134-2.896-3.1134-5.026 0-1.64.7013-3.096 1.7596-4.104.9-.857 1.8497-1.202 2.3265-1.343.9301-.276 1.7306-.253 1.9758-.246.6549.02 1.2925.133 1.7039.213.9289.18 2.142.486 3.4986.857 2.7629.755 6.6668 1.928 11.311 3.362 4.7229 1.458 10.3504 3.23 16.4509 5.15 5.837 1.837 12.1071 3.811 18.4325 5.777 13.0334 4.051 26.4964 8.131 37.6744 11.174 5.592 1.522 10.551 2.768 14.564 3.618 4.175.885 6.851 1.234 8.126 1.206.261-.005 1.138-.122 2.865-.604 1.619-.452 3.664-1.132 6.11-2.034 4.885-1.802 11.098-4.391 18.205-7.538 6.835-3.026 14.434-6.541 22.379-10.317-6.527 2.386-12.778 4.621-18.513 6.601-7.206 2.487-13.654 4.591-18.839 6.091-4.928 1.425-9.396 2.517-12.248 2.578-2.861.062-6.679-.72-10.655-1.77-4.154-1.098-9.092-2.663-14.459-4.514-10.744-3.705-23.495-8.657-35.6769-13.591-12.1954-4.94-23.8822-9.887-32.5161-13.598-4.3182-1.855-7.8759-3.403-10.3554-4.487-1.2399-.543-2.2103-.969-2.8717-1.26-.3307-.146-.5841-.258-.7553-.334l-.2574-.113-.0034-.002h-.0013c-2.0297-.9-3.3384-2.911-3.3384-5.132 0-3.401 2.6389-4.886 3.5155-5.252.9178-.383 1.7318-.44 2.0033-.457.6836-.042 1.3386.022 1.7343.067.903.103 2.0589.311 3.3185.565 2.5745.518 6.199 1.355 10.4967 2.39 5.2886 1.273 11.7427 2.88 18.7326 4.62 4.3775 1.09 8.9652 2.233 13.608 3.378 12.106 2.987 24.646 6.008 35.137 8.259 5.247 1.126 9.93 2.048 13.761 2.676 3.944.646 6.63.918 8.06.888.997-.022 3.806-.651 8.719-2.315 4.632-1.569 10.483-3.822 17.153-6.561 6.765-2.779 14.306-6.03 22.17-9.524-6.567 2.149-12.867 4.159-18.629 5.927-6.771 2.078-12.852 3.837-17.777 5.092-4.719 1.203-8.941 2.099-11.677 2.157-2.742.059-6.538-.59-10.617-1.498-4.239-.944-9.318-2.296-14.868-3.901-11.11-3.212-24.361-7.513-37.0516-11.804-12.7027-4.294-24.8983-8.598-33.9146-11.826-4.5094-1.614-8.2262-2.961-10.8169-3.904-1.2954-.472-2.3094-.843-3.0003-1.096-.3455-.127-.6102-.224-.7889-.29l-.2718-.1h-.0014c-2.2054-.814-3.6702-2.915-3.6702-5.266 0-3.413 2.6702-4.874 3.3606-5.187.8497-.386 1.6111-.48 1.8812-.511.6648-.076 1.3139-.052 1.726-.03.9275.051 2.124.191 3.4411.373 2.6876.371 6.473 1.003 10.966 1.798 6.6769 1.181 15.0992 2.755 24.1422 4.445 3.1505.588 6.3764 1.191 9.6301 1.796 12.6255 2.349 25.6965 4.738 36.5945 6.518 11.146 1.82 19.377 2.888 22.737 2.816 1.048-.023 3.99-.66 9.094-2.291 4.826-1.542 10.944-3.752 17.928-6.435 7.278-2.797 15.43-6.081 23.936-9.609-7.29 2.213-14.276 4.283-20.623 6.092-7.076 2.016-13.405 3.721-18.499 4.937-4.89 1.168-9.186 2.025-11.877 2.083-2.571.055-6.053-.381-9.863-1.033-3.915-.67-8.543-1.637-13.566-2.788-10.053-2.305-21.897-5.399-33.188-8.488-11.3007-3.093-22.0947-6.194-30.0603-8.5217-3.9838-1.164-7.2628-2.1351-9.547-2.8156-1.1422-.3402-2.0358-.6079-2.6446-.7907-.3044-.0914-.5377-.1616-.6952-.209l-.2398-.0724-.0012-.0003c-2.3682-.716-3.9882-2.8983-3.9882-5.3723 0-2.0542 1.0648-3.4722 1.8697-4.1977.728-.6562 1.4516-.9643 1.7755-1.0898.6778-.2624 1.2717-.3428 1.4772-.3696.5226-.0681 1.0448-.0773 1.4004-.078.7881-.0018 1.8202.0441 2.9785.1148 2.3565.1439 5.6847.4198 9.6517.7796 6.4451.5845 14.7394 1.4058 23.6194 2.2851 2.072.2051 4.1759.4135 6.2959.6227 22.702 2.2406 46.659 4.5177 54.203 4.3559 1.154-.0248 4.057-.5972 8.891-1.9899 4.603-1.3263 10.4-3.2251 16.993-5.53 7.178-2.509 15.232-5.4751 23.612-8.6604-7.3 1.9126-14.312 3.7031-20.664 5.2567-6.684 1.6348-12.681 3.0179-17.537 4.0066-4.698.9565-8.763 1.6387-11.336 1.6939-4.578.0982-13.708-1.0635-24.172-2.6536-10.689-1.6241-23.386-3.7983-35.4729-5.917-4.5532-.7982-9.0139-1.5874-13.2522-2.3373-7.0461-1.2467-13.4773-2.3846-18.6965-3.2738-4.185-.713-7.5079-1.2518-9.7021-1.5549-.6544-.0904-1.1549-.1522-1.5195-.1915-1.6397.2745-3.3846-.1791-4.7092-1.3854-.289-.2631-1.0206-.971-1.4802-2.1487-.5791-1.4837-.5875-3.4332.5362-5.1485.888-1.3554 2.0803-1.9218 2.5346-2.1149.5509-.2341 1.0248-.3331 1.2736-.3776.8143-.1458 1.5969-.1014 1.8654-.0861.007.0004.0136.0008.0199.0011.7962.0448 1.8597.1727 3.0152.3323 2.3861.3296 5.8631.8952 10.0514 1.6088 5.2494.8944 11.7464 2.0438 18.8248 3.2962 4.2318.7487 8.6715 1.5342 13.1768 2.324 12.0777 2.1171 24.6677 4.2723 35.2207 5.8758 10.777 1.6376 18.843 2.6018 22.245 2.5288 1.416-.0304 4.529-.4917 9.338-1.4709 4.651-.947 10.489-2.2916 17.109-3.9108 13.233-3.2365 29.421-7.528 45.149-11.8192 15.72-4.2892 30.946-8.5688 42.244-11.7768 5.648-1.6038 10.314-2.9393 13.566-3.8737 1.626-.4671 2.899-.834 3.765-1.0839.433-.125.764-.2207.987-.2851l.334-.097z" fill="#000" fill-rule="evenodd"/></svg>