<svg viewBox="0 0 24 24" xmlns="http://www.w3.org/2000/svg"><path d="m23.436.566a1.5 1.5 0 0 0 -2.122 0l-1.414 1.414a.5.5 0 0 0 0 .707l1.414 1.413a.5.5 0 0 0 .707 0l1.415-1.414a1.5 1.5 0 0 0 0-2.121z"/><path d="m3.637 17.537a.5.5 0 0 0 -.457-.137.5.5 0 0 0 -.364.309l-1.508 3.924-.963.967a.75.75 0 0 0 0 1.061.758.758 0 0 0 1.06 0l.963-.963 3.923-1.509a.5.5 0 0 0 .174-.82z"/><path d="m19.193 3.394a1.5 1.5 0 0 0 -2.122 0l-.707-.707a2 2 0 0 0 -2.828 0l-4.242 4.243a1 1 0 0 0 0 1.414 1.015 1.015 0 0 0 1.414 0l4.242-4.244.707.707-11.313 11.315a.5.5 0 0 0 0 .708l2.828 2.828a.5.5 0 0 0 .707 0l12.728-12.729a1.5 1.5 0 0 0 0-2.121z"/></svg>